<svg width="32" height="159" viewBox="0 0 32 159" fill="none" xmlns="http://www.w3.org/2000/svg">
<rect x="0.5" y="158.166" width="157.625" height="30.3301" rx="15.1651" transform="rotate(-90 0.5 158.166)" stroke="black"/>
<path d="M16.0176 79.677C15.8224 79.4818 15.5058 79.4818 15.3105 79.677L12.1285 82.859C11.9333 83.0543 11.9333 83.3708 12.1285 83.5661C12.3238 83.7614 12.6404 83.7614 12.8356 83.5661L15.6641 80.7377L18.4925 83.5661C18.6878 83.7614 19.0043 83.7614 19.1996 83.5661C19.3949 83.3708 19.3949 83.0543 19.1996 82.859L16.0176 79.677ZM16.1641 120.707L16.1641 80.0306L15.1641 80.0306L15.1641 120.707L16.1641 120.707Z" fill="black"/>
<path fill-rule="evenodd" clip-rule="evenodd" d="M16.0218 54.0983C20.4953 54.0983 24.1218 57.6919 24.1218 62.1247C24.1218 66.5576 20.4953 70.1511 16.0218 70.1511C11.5483 70.1511 7.92187 66.5576 7.92187 62.1247C7.92187 57.6919 11.5483 54.0983 16.0218 54.0983ZM10.6845 59.8326C9.75319 61.9301 10.1483 64.4751 11.8981 66.209C14.156 68.4743 17.8531 68.4743 20.1392 66.209C20.3085 66.0412 20.4779 65.8734 20.619 65.6776L17.9378 62.9928L16.9218 63.9996L18.5869 65.6497C16.8653 66.8802 14.4664 66.7404 12.9141 65.2022C11.7288 64.0556 11.3619 62.4055 11.7852 60.9233L10.6845 59.8326ZM20.1388 58.0716C21.8604 59.7776 22.2838 62.3225 21.3524 64.448L20.2517 63.3293C20.6751 61.8751 20.3082 60.2251 19.1228 59.0505C17.5988 57.5403 15.1716 57.3725 13.45 58.603L15.1152 60.253L14.0991 61.2598L11.418 58.603C11.5591 58.4072 11.7284 58.2394 11.8978 58.0716C14.1838 55.8063 17.8528 55.8063 20.1388 58.0716ZM16.02 61.119L15.004 62.1258L16.02 63.1326L17.0361 62.1258L16.02 61.119ZM14.1 63.0213L13.084 64.0281L14.1 65.0349L15.116 64.0281L14.1 63.0213ZM17.9379 59.2176L16.9219 60.2244L17.9379 61.2312L18.9539 60.2244L17.9379 59.2176Z" fill="black"/>
<path d="M12.9428 49.6062L19.3448 49.6062L19.3448 46.9002C19.3448 44.8166 18.0662 43.4366 16.1392 43.4366C14.2123 43.4366 12.9428 44.7896 12.9428 46.8371L12.9428 49.6062ZM14.4406 47.7301L14.4406 46.8732C14.4406 45.9712 15.1255 45.3488 16.1575 45.3488C17.1804 45.3488 17.8562 45.9261 17.8562 46.783L17.8562 47.7301L14.4406 47.7301Z" fill="black"/>
<path d="M16.0023 37.8017L12.9428 35.7361L12.9428 37.946L14.6141 39.0013L12.9428 40.0476L12.9428 42.2305L16.0844 40.1378L19.3448 42.3748L19.3448 40.1829L17.5183 39.0013L19.3448 37.8017L19.3448 35.5467L16.0023 37.8017Z" fill="black"/>
<path d="M12.952 33.6989L12.952 31.038C12.952 30.3705 13.0859 29.7782 13.3538 29.2611C13.6217 28.7439 13.9992 28.3441 14.4862 28.0614C14.9672 27.7728 15.5213 27.6285 16.1484 27.6285C16.7755 27.6285 17.3326 27.7728 17.8196 28.0614C18.3006 28.3441 18.6751 28.7439 18.943 29.2611C19.2108 29.7782 19.3448 30.3705 19.3448 31.038L19.3448 33.6989L12.952 33.6989ZM18.5503 31.0921C18.5503 30.581 18.4498 30.133 18.2489 29.7482C18.048 29.3573 17.7679 29.0566 17.4087 28.8462C17.0434 28.6357 16.6233 28.5305 16.1484 28.5305C15.6735 28.5305 15.2564 28.6357 14.8972 28.8462C14.5319 29.0566 14.2488 29.3573 14.0479 29.7482C13.847 30.133 13.7465 30.581 13.7465 31.0921L13.7465 32.7969L18.5503 32.7969L18.5503 31.0921Z" fill="black"/>
<path d="M17.7466 22.3121L17.7466 25.6675L19.3448 26.362L19.3448 27.2911L12.952 24.4318L12.952 23.5388L19.3448 20.6705L19.3448 21.6176L17.7466 22.3121ZM17.016 22.6278L13.8835 23.9898L17.016 25.3518L17.016 22.6278Z" fill="black"/>
<path d="M19.4178 16.9664C19.4178 17.6038 19.2778 18.1781 18.9977 18.6892C18.7116 19.2003 18.3189 19.6032 17.8196 19.8979C17.3204 20.1865 16.7633 20.3308 16.1484 20.3308C15.5334 20.3308 14.9764 20.1865 14.4771 19.8979C13.9779 19.6032 13.5882 19.2003 13.3081 18.6892C13.022 18.1781 12.8789 17.6038 12.8789 16.9664C12.8789 16.335 13.022 15.7637 13.3081 15.2526C13.5882 14.7415 13.9779 14.3416 14.4771 14.053C14.9703 13.7643 15.5274 13.62 16.1484 13.62C16.7694 13.62 17.3295 13.7643 17.8288 14.053C18.3219 14.3416 18.7116 14.7415 18.9977 15.2526C19.2778 15.7637 19.4178 16.335 19.4178 16.9664ZM18.605 16.9664C18.605 16.5034 18.4985 16.0885 18.2854 15.7216C18.0723 15.3488 17.7801 15.0572 17.4087 14.8467C17.0312 14.6302 16.6111 14.522 16.1484 14.522C15.6857 14.522 15.2686 14.6302 14.8972 14.8467C14.5197 15.0572 14.2244 15.3488 14.0113 15.7216C13.7983 16.0885 13.6917 16.5034 13.6917 16.9664C13.6917 17.4294 13.7983 17.8503 14.0113 18.2292C14.2244 18.602 14.5197 18.8966 14.8972 19.1131C15.2686 19.3236 15.6857 19.4288 16.1484 19.4288C16.6111 19.4288 17.0312 19.3236 17.4087 19.1131C17.7801 18.8966 18.0723 18.602 18.2854 18.2292C18.4985 17.8503 18.605 17.4294 18.605 16.9664Z" fill="black"/>
<path d="M20.4745 143.297L11.5703 143.297L11.5703 140.401C11.5703 139.824 11.6776 139.348 11.892 138.973C12.1036 138.598 12.3891 138.319 12.7486 138.136C13.1051 137.952 13.5007 137.861 13.9355 137.861C14.3181 137.861 14.634 137.924 14.8833 138.051C15.1326 138.175 15.3297 138.339 15.4746 138.544C15.6195 138.747 15.7268 138.966 15.7963 139.204L15.8833 139.204C15.9007 138.95 15.9963 138.695 16.1702 138.439C16.3441 138.183 16.5934 137.969 16.9181 137.796C17.2427 137.624 17.6398 137.537 18.1093 137.537C18.5557 137.537 18.9571 137.632 19.3137 137.82C19.6702 138.009 19.9528 138.307 20.1615 138.714C20.3702 139.121 20.4745 139.651 20.4745 140.304L20.4745 143.297ZM19.518 142.294L19.518 140.304C19.518 139.648 19.3818 139.183 19.1093 138.908C18.834 138.631 18.5006 138.492 18.1093 138.492C17.8079 138.492 17.5296 138.563 17.2746 138.706C17.0166 138.849 16.8108 139.053 16.6572 139.317C16.5007 139.581 16.4224 139.894 16.4224 140.255L16.4224 142.294L19.518 142.294ZM15.4833 142.294L15.4833 140.433C15.4833 140.131 15.4195 139.859 15.292 139.616C15.1645 139.371 14.9847 139.177 14.7529 139.034C14.521 138.888 14.2485 138.815 13.9355 138.815C13.5442 138.815 13.2123 138.942 12.9399 139.195C12.6645 139.449 12.5268 139.851 12.5268 140.401L12.5268 142.294L15.4833 142.294Z" fill="black"/>
<path d="M11.5703 136.601L11.5703 135.452L15.7268 133.155L15.7268 133.058L11.5703 130.761L11.5703 129.612L16.805 132.605L20.4745 132.605L20.4745 133.608L16.805 133.608L11.5703 136.601Z" fill="black"/>
</svg>
