<svg width="30" height="139" viewBox="0 0 30 139" fill="none" xmlns="http://www.w3.org/2000/svg">
<path d="M20.5 137.349H10.3182V133.452C10.3182 132.716 10.4342 132.104 10.6662 131.617C10.8949 131.126 11.2081 130.76 11.6058 130.518C12.0036 130.273 12.4543 130.15 12.9581 130.15C13.3724 130.15 13.727 130.23 14.022 130.389C14.3137 130.548 14.5507 130.762 14.733 131.03C14.9152 131.299 15.0462 131.599 15.1257 131.93H15.2251C15.245 131.569 15.3561 131.223 15.5582 130.891C15.7571 130.556 16.0388 130.283 16.4034 130.071C16.768 129.859 17.2088 129.753 17.7259 129.753C18.2528 129.753 18.7268 129.88 19.1477 130.135C19.5653 130.391 19.8951 130.775 20.1371 131.289C20.379 131.803 20.5 132.449 20.5 133.228V137.349ZM18.9588 135.505V133.521C18.9588 132.852 18.8312 132.369 18.576 132.074C18.3175 131.776 17.986 131.627 17.5817 131.627C17.2801 131.627 17.0083 131.702 16.7663 131.851C16.5211 132 16.3288 132.212 16.1896 132.487C16.0471 132.762 15.9759 133.09 15.9759 133.471V135.505H18.9588ZM14.6484 135.505V133.68C14.6484 133.362 14.5904 133.075 14.4744 132.82C14.3551 132.565 14.1877 132.364 13.9723 132.219C13.7536 132.069 13.495 131.995 13.1967 131.995C12.8023 131.995 12.4775 132.134 12.2223 132.412C11.9671 132.688 11.8395 133.097 11.8395 133.64V135.505H14.6484ZM10.3182 128.844V126.761L14.8224 124.27V124.171L10.3182 121.68V119.597L16.7017 123.301H20.5V125.14H16.7017L10.3182 128.844Z" fill="black"/>
<path fill-rule="evenodd" clip-rule="evenodd" d="M15 76.2545C23.2843 76.2545 30 82.9924 30 91.304C30 99.6156 23.2843 106.354 15 106.354C6.71573 106.354 0 99.6156 0 91.304C0 82.9924 6.71573 76.2545 15 76.2545ZM5.11791 87.0045C3.39317 90.9373 4.12487 95.7091 7.36529 98.9602C11.5465 103.208 18.3932 103.208 22.6266 98.9602C22.9402 98.6456 23.2538 98.3309 23.5151 97.9639L18.55 92.9299L16.6684 94.8176L19.7521 97.9114C16.5639 100.219 12.1214 99.9565 9.24683 97.0725C7.0517 94.9225 6.37226 91.8287 7.15623 89.0496L5.11791 87.0045ZM22.6274 83.7017C25.8155 86.9004 26.5995 91.6722 24.8748 95.6574L22.8364 93.5599C23.6204 90.8332 22.941 87.7394 20.7458 85.537C17.9235 82.7054 13.4288 82.3908 10.2406 84.698L13.3242 87.7918L11.4427 89.6796L6.47754 84.698C6.73886 84.331 7.05245 84.0163 7.36604 83.7017C11.5995 79.4543 18.3939 79.4543 22.6274 83.7017ZM14.9985 89.4173L13.1169 91.3051L14.9985 93.1928L16.88 91.3051L14.9985 89.4173ZM11.4413 92.983L9.55981 94.8707L11.4413 96.7585L13.3229 94.8707L11.4413 92.983ZM18.5495 85.8514L16.668 87.7391L18.5495 89.6268L20.431 87.7391L18.5495 85.8514Z" fill="black"/>
<path d="M9.2971 67.8301H21.1526V62.7564C21.1526 58.8496 18.7849 56.262 15.2164 56.262C11.6479 56.262 9.2971 58.7989 9.2971 62.638V67.8301ZM12.0707 64.3123V62.7056C12.0707 61.0144 13.3391 59.8475 15.2502 59.8475C17.1444 59.8475 18.3959 60.9298 18.3959 62.5365V64.3123H12.0707Z" fill="black"/>
<path d="M14.9627 45.6966L9.2971 41.8237V45.9672L12.3921 47.9459L9.2971 49.9078V54.0005L15.1149 50.0769L21.1526 54.2711V50.1614L17.7702 47.9459L21.1526 45.6966V41.4685L14.9627 45.6966Z" fill="black"/>
<path d="M9.31401 38.0039V33.0147C9.31401 31.7632 9.56206 30.6526 10.0582 29.683C10.5542 28.7134 11.2533 27.9636 12.1553 27.4337C13.046 26.8925 14.072 26.6219 15.2333 26.6219C16.3946 26.6219 17.4263 26.8925 18.3283 27.4337C19.219 27.9636 19.9124 28.7134 20.4085 29.683C20.9046 30.6526 21.1526 31.7632 21.1526 33.0147V38.0039H9.31401ZM19.6813 33.1162C19.6813 32.1578 19.4952 31.3179 19.1232 30.5963C18.7511 29.8634 18.2324 29.2996 17.5672 28.905C16.8907 28.5104 16.1128 28.3131 15.2333 28.3131C14.3539 28.3131 13.5816 28.5104 12.9163 28.905C12.2398 29.2996 11.7156 29.8634 11.3435 30.5963C10.9714 31.3179 10.7854 32.1578 10.7854 33.1162V36.3126H19.6813V33.1162Z" fill="black"/>
<path d="M18.193 16.6536V22.945L21.1526 24.2473V25.9892L9.31401 20.628V18.9537L21.1526 13.5756V15.3514L18.193 16.6536ZM16.84 17.2456L11.0391 19.7993L16.84 22.3531V17.2456Z" fill="black"/>
<path d="M21.2879 6.63043C21.2879 7.82557 21.0286 8.90232 20.51 9.86069C19.9801 10.8191 19.2528 11.5745 18.3283 12.1269C17.4037 12.6681 16.3721 12.9387 15.2333 12.9387C14.0946 12.9387 13.0629 12.6681 12.1384 12.1269C11.2138 11.5745 10.4922 10.8191 9.97359 9.86069C9.44367 8.90232 9.17871 7.82557 9.17871 6.63043C9.17871 5.44657 9.44367 4.37545 9.97359 3.41709C10.4922 2.45872 11.2138 1.70895 12.1384 1.16775C13.0516 0.626556 14.0833 0.355957 15.2333 0.355957C16.3834 0.355957 17.4207 0.626556 18.3452 1.16775C19.2585 1.70895 19.9801 2.45872 20.51 3.41709C21.0286 4.37545 21.2879 5.44657 21.2879 6.63043ZM19.7827 6.63043C19.7827 5.76226 19.5854 4.9843 19.1908 4.29653C18.7962 3.59749 18.255 3.05066 17.5672 2.65604C16.8682 2.25014 16.0902 2.04719 15.2333 2.04719C14.3764 2.04719 13.6041 2.25014 12.9163 2.65604C12.2173 3.05066 11.6705 3.59749 11.2758 4.29653C10.8812 4.9843 10.6839 5.76226 10.6839 6.63043C10.6839 7.4986 10.8812 8.28784 11.2758 8.99816C11.6705 9.6972 12.2173 10.2497 12.9163 10.6556C13.6041 11.0502 14.3764 11.2475 15.2333 11.2475C16.0902 11.2475 16.8682 11.0502 17.5672 10.6556C18.255 10.2497 18.7962 9.6972 19.1908 8.99816C19.5854 8.28784 19.7827 7.4986 19.7827 6.63043Z" fill="black"/>
</svg>
